# xmcd
#
# Track frame offsets: 
#        150
#        16432
#        35744
#        37449
#        63702
#        87028
#        102688
#        121501
#        137489
#        154664
#        176152
#        193162
#        224152
#
# Disc length: 3372 seconds
#
# Revision: 2
# Processed by: cddbd v1.5.2PL0 Copyright (c) Steve Scherf et al.
# Submitted via: ExactAudioCopyFreeDBPlugin 1.0
#
DISCID=c60d2a0d
DTITLE=Deniece Williams - When Love Comes Calling
DYEAR=1979
DGENRE=Soul
TTITLE0=I Found Love
TTITLE1=Are You Thinking?
TTITLE2=My Prayer
TTITLE3=I've Got The Next Dance
TTITLE4=Touch Me Again
TTITLE5=When Love Comes Calling
TTITLE6=God Knows
TTITLE7=Like Magic
TTITLE8=Turn Around
TTITLE9=Why Can't We Fall In Love?
TTITLE10=I've Got The Next Dance (Single Mix)
TTITLE11=I Found Love (12" Disco Mix)
TTITLE12=I've Got The Next Dance (12" Disco Mix)
EXTD=YEAR: 1979
EXTT0=
EXTT1=
EXTT2=
EXTT3=
EXTT4=
EXTT5=
EXTT6=
EXTT7=
EXTT8=
EXTT9=
EXTT10=
EXTT11=
EXTT12=
PLAYORDER=
